<svg id="svg" xmlns="http://www.w3.org/2000/svg" xmlns:xlink="http://www.w3.org/1999/xlink" width="400" height="400" viewBox="0, 0, 400,400"><g id="svgg"><path id="path0" d="M143.759 38.059 C 136.742 45.076,133.333 53.636,133.333 64.242 L 133.333 80.000 92.000 80.000 C 43.800 80.000,40.000 82.338,40.000 112.000 L 40.000 133.333 200.000 133.333 L 360.000 133.333 360.000 112.000 C 360.000 82.338,356.200 80.000,308.000 80.000 L 266.667 80.000 266.667 64.242 C 266.667 27.848,173.762 8.056,143.759 38.059 M184.551 67.002 C 188.253 78.666,185.332 81.586,173.668 77.884 C 161.737 74.097,161.222 57.778,173.034 57.778 C 177.824 57.778,182.918 61.858,184.551 67.002 M235.556 66.367 C 235.556 71.157,231.476 76.252,226.332 77.884 C 214.668 81.586,211.747 78.666,215.449 67.002 C 219.236 55.070,235.556 54.555,235.556 66.367 M53.333 254.667 C 53.333 369.459,46.867 360.000,125.333 360.000 L 186.667 360.000 186.667 260.000 L 186.667 160.000 120.000 160.000 L 53.333 160.000 53.333 254.667 M213.333 260.000 L 213.333 360.000 274.667 360.000 C 353.133 360.000,346.667 369.459,346.667 254.667 L 346.667 160.000 280.000 160.000 L 213.333 160.000 213.333 260.000 " stroke="none" fill="#000000" fill-rule="evenodd"></path></g></svg>