<svg id="svg" xmlns="http://www.w3.org/2000/svg" xmlns:xlink="http://www.w3.org/1999/xlink" width="400" height="400" viewBox="0, 0, 400,400"><g id="svgg"><path id="path0" d="M143.564 36.012 C 76.645 61.739,52.061 108.215,54.127 205.095 L 55.556 272.106 69.414 283.831 C 77.037 290.279,86.454 301.795,90.341 309.422 C 117.200 362.119,197.153 389.568,251.674 364.810 C 283.179 350.503,279.997 346.667,236.625 346.667 C 169.075 346.667,130.191 326.323,111.607 281.259 C 108.364 273.396,101.811 265.725,97.045 264.212 C 81.083 259.146,74.027 226.667,88.889 226.667 C 95.478 226.667,97.778 223.704,97.778 215.214 C 97.778 194.806,118.542 179.657,158.059 171.237 C 217.747 158.518,234.813 151.541,253.302 132.299 L 270.524 114.376 279.800 129.410 C 293.112 150.985,301.263 183.174,304.712 227.778 C 306.544 251.482,309.643 266.667,312.647 266.667 C 315.358 266.667,312.142 272.100,305.501 278.741 C 290.008 294.235,234.639 299.857,225.164 286.899 C 216.976 275.702,177.742 278.887,173.286 291.111 C 164.023 316.519,172.115 320.000,240.443 320.000 C 313.951 320.000,326.129 315.466,342.291 282.079 C 347.565 271.185,353.707 261.142,355.940 259.762 C 362.877 255.475,360.763 210.611,353.333 204.444 C 348.610 200.524,346.667 190.150,346.667 168.855 C 346.667 112.734,314.201 53.333,283.528 53.333 C 277.297 53.333,269.455 50.024,266.100 45.978 C 248.837 25.163,185.239 19.990,143.564 36.012 " stroke="none" fill="#000000" fill-rule="evenodd"></path></g></svg>