<svg id="svg" xmlns="http://www.w3.org/2000/svg" xmlns:xlink="http://www.w3.org/1999/xlink" width="400" height="400" viewBox="0, 0, 400,400"><g id="svgg"><path id="path0" d="M57.951 46.459 C 50.805 55.069,51.309 305.539,58.490 314.191 C 62.035 318.463,79.635 320.000,124.989 320.000 L 186.667 320.000 186.667 353.333 L 186.667 386.667 200.000 386.667 C 214.648 386.667,214.319 387.624,213.377 347.778 L 212.721 320.000 274.360 320.000 C 316.376 320.000,337.698 318.302,341.333 314.667 C 348.949 307.051,348.949 52.949,341.333 45.333 C 332.743 36.743,65.132 37.806,57.951 46.459 M234.325 138.760 C 261.917 166.107,269.446 182.222,254.632 182.222 C 250.457 182.222,239.457 174.816,230.187 165.765 L 213.333 149.307 213.333 234.654 L 213.333 320.000 200.000 320.000 L 186.667 320.000 186.667 234.654 L 186.667 149.307 169.813 165.765 C 151.852 183.303,137.778 187.169,137.778 174.564 C 137.778 165.128,190.536 111.111,199.752 111.111 C 203.424 111.111,218.981 123.553,234.325 138.760 " stroke="none" fill="#000000" fill-rule="evenodd"></path></g></svg>