<svg id="svg" xmlns="http://www.w3.org/2000/svg" xmlns:xlink="http://www.w3.org/1999/xlink" width="400" height="400" viewBox="0, 0, 400,400"><g id="svgg"><path id="path0" d="M66.667 53.333 L 66.667 66.667 200.000 66.667 L 333.333 66.667 333.333 53.333 L 333.333 40.000 200.000 40.000 L 66.667 40.000 66.667 53.333 M53.333 106.667 L 53.333 120.000 200.000 120.000 L 346.667 120.000 346.667 106.667 L 346.667 93.333 200.000 93.333 L 53.333 93.333 53.333 106.667 M45.333 152.000 C 37.778 159.556,37.778 347.111,45.333 354.667 C 52.972 362.305,347.028 362.305,354.667 354.667 C 362.222 347.111,362.222 159.556,354.667 152.000 C 347.028 144.362,52.972 144.362,45.333 152.000 " stroke="none" fill="#000000" fill-rule="evenodd"></path></g></svg>